<svg width="59" height="50" viewBox="0 0 59 50" fill="none" xmlns="http://www.w3.org/2000/svg">
<path d="M0 43.5V31.5L12 37.5V49.5L0 43.5Z" fill="#FB752F"/>
<path d="M0 31.5L12 25.5L24 31.5L12 37.5L0 31.5Z" fill="#F99C6A"/>
<path d="M24 43.5L12 49.5V37.5L24 31.5V43.5Z" fill="#C95B1F"/>
<path d="M3 37L2 36.5V38.5L3 39V37Z" fill="#C95B1F"/>
<path d="M9 40L8 39.5V41.5L9 42V40Z" fill="#C95B1F"/>
<path d="M6 44H9V45H6L4 44L2 42V41L4 43L6 44Z" fill="#C95B1F"/>
<path d="M34 12.5V10.5L32 11.5V13.5L34 12.5Z" fill="#FB752F"/>
<path d="M31 11L34 9.5V10.5L32 11.5L31 11Z" fill="#F99C6A"/>
<path d="M33 12H31V14H33V12Z" fill="#898582"/>
<path d="M29 12L31 11L32 11.5L33 12H31V13L29 12Z" fill="#DDCFC8"/>
<path d="M31 13V15L29 14V12L31 13Z" fill="#9D9896"/>
<path d="M45 19.5L51 22.5L43 26.5L37 23.5L45 19.5Z" fill="#9E9997"/>
<path d="M51 23.5V22.5L43 26.5V27.5L51 23.5Z" fill="#958E8A"/>
<path d="M37 23.5L43 26.5V27.5L37 24.5V23.5Z" fill="#AAA5A2"/>
<path d="M45 25.5L39 22.5L37 23.5L43 26.5L45 25.5Z" fill="#B5ADA9"/>
<path d="M53 23.5L59 26.5L51 30.5L45 27.5L53 23.5Z" fill="#9E9997"/>
<path d="M59 27.5V26.5L51 30.5V31.5L59 27.5Z" fill="#958E8A"/>
<path d="M45 27.5L51 30.5V31.5L45 28.5V27.5Z" fill="#AAA5A2"/>
<path d="M53 29.5L47 26.5L45 27.5L51 30.5L53 29.5Z" fill="#B5ADA9"/>
<path d="M55 25L53 27V22L55 21V25Z" fill="#A08476"/>
<path d="M52 26.5L53 27V22L52 21.5V26.5Z" fill="#B99885"/>
<path d="M34 17.5V5.5L48 12.5V24.5L34 17.5Z" fill="#FB752F"/>
<path d="M34 5.5L44 0.5L58 7.5L48 12.5L34 5.5Z" fill="#F99C6A"/>
<path d="M58 19.5L48 24.5V12.5L58 7.5V19.5Z" fill="#C95B1F"/>
<path d="M45 15.5L35 10V15.5L45 20.5V15.5Z" fill="#BBCB4D"/>
<path d="M36 9.5L35 10L45 15.5L46 15L36 9.5Z" fill="#E1F3A7"/>
<path d="M46 20L45 20.5V15.5L46 15V20Z" fill="#9FB549"/>
<path d="M56 17L57 16L48 20.5V21L56 17Z" fill="#B7511B"/>
<path d="M46 18.5L56 14H57L47 19L46 18.5Z" fill="#F99C6A"/>
<path d="M57 16V14L47 19V21L57 16Z" fill="#FB752F"/>
<path d="M47 21L45 22V20L47 19V21Z" fill="#898582"/>
<path d="M45 22V20L43 19V21L45 22Z" fill="#9D9896"/>
<path d="M45 20L47 19L45 18V19H43L45 20Z" fill="#F2E1D8"/>
</svg>
